<svg width="97" height="64" viewBox="0 0 97 64" fill="none" xmlns="http://www.w3.org/2000/svg">
<path d="M33.1064 27.7803C33.1064 27.2177 32.8955 26.7957 32.5441 26.7957C31.56 26.7957 30.1542 29.8902 29.3107 33.4067C31.9818 31.6484 33.1064 29.4682 33.1064 27.7803ZM6.818 57.0375C6.818 57.8111 7.09915 59.1473 8.01292 59.1473C11.668 59.1473 16.2368 49.5122 16.4477 41.9869C10.1216 46.3473 6.818 52.6067 6.818 57.0375ZM39.8542 24.4045H43.6499L41.7521 30.9451L44.7042 30.1715L46.3912 24.4045H49.9057L47.0238 34.2506L51.7332 27.9913L52.7876 24.4748H56.2318L54.1934 31.4375C54.1231 31.7188 53.7013 33.1957 54.0528 33.1957C54.4042 33.1957 55.318 31.5781 56.3021 29.7495C57.4267 27.7803 58.3405 25.6704 58.7622 24.4748H62.2064L60.5194 30.3825L64.8774 24.4748H95.2426L22.0709 55.7715L23.4767 50.8484L81.0441 27.288H69.7977L68.7434 30.9451L65.1586 32.0704L66.5644 27.288H64.8071L59.8165 33.7583L56.7238 34.8133C56.8644 33.266 57.1455 31.7188 57.497 30.1715L56.0912 32.844C54.9666 34.9539 53.9825 36.6419 52.2252 36.6419C50.96 36.6419 50.3977 35.4462 50.3977 33.899C50.3977 33.3364 50.468 32.7737 50.6086 32.1408L45.8992 38.4001L42.0332 39.666L44.0013 32.844L41.0492 33.6177L39.0107 40.721L34.7934 42.1276L36.6912 35.5869L32.4035 41.0023C30.576 43.3232 28.7484 44.5891 27.2723 44.5891C24.3905 44.5891 24.039 39.877 24.2499 37.9781C22.7035 38.6814 22.1412 38.9627 21.6492 39.244C22.3521 49.3715 12.0194 63.3671 5.48249 63.3671C3.44408 63.3671 1.89771 61.8199 1.89771 58.2331C1.89771 53.0287 5.83394 45.3627 16.3774 39.3847C16.0963 37.3451 15.3934 35.5869 14.1281 34.4616V34.2506C17.7129 31.5078 20.3839 28.4133 20.3839 25.6704C20.3839 24.4045 19.3999 23.9122 18.3455 23.9122C16.3774 23.9122 13.7767 26.3737 12.3006 28.4133H11.5977L12.7223 24.4748C15.3934 20.888 19.7513 19.6221 22.0709 19.6221C24.4607 19.6221 26.4992 20.5364 26.4992 23.4199C26.4992 26.866 23.547 30.3825 19.189 33.055C20.1731 34.1803 20.876 35.5166 21.2274 36.9232C22.2818 36.3605 23.4064 35.7979 24.531 35.3056C25.7963 29.1166 30.2245 24.3342 34.1607 24.3342C36.1289 24.3342 37.0426 25.5298 37.0426 27.1473C37.0426 30.8748 33.5984 33.7583 28.8187 36.2902C28.6781 37.1342 28.6781 37.6265 28.6781 38.1188C28.6781 39.8067 29.0296 40.5803 29.6622 40.5803C30.0839 40.5803 30.576 40.2287 31.2086 39.5254L37.6752 31.8594L39.8542 24.4045V24.4045ZM83.0122 47.5429L83.1528 46.277H86.1752V44.5891H81.6064L81.1144 49.2309C81.6767 49.0199 82.239 48.9495 82.731 48.9495C83.926 48.9495 84.5586 49.4419 84.5586 50.1451C84.5586 50.7078 84.0666 51.2704 83.1528 51.2704C82.4499 51.2704 81.6767 50.9891 81.0441 50.4968L80.8332 52.3254C81.4658 52.7473 82.3796 53.099 83.2934 53.099C85.4723 53.099 86.6673 51.8331 86.6673 50.1451C86.6673 48.1759 84.7694 47.1913 83.0122 47.5429V47.5429ZM79.9897 47.0506C79.9897 45.644 78.8651 44.3781 76.897 44.3781C74.9992 44.3781 73.8042 45.5737 73.8042 47.4023V47.4726H75.8426V47.4023C75.8426 46.5583 76.2644 46.066 76.9673 46.066C77.5999 46.066 77.9513 46.488 77.9513 47.0506C77.9513 47.4726 77.7405 47.8946 77.3187 48.3869L73.5934 52.8177H79.9897V51.0594H77.4593L78.9354 49.3715C79.6383 48.5979 79.9897 47.9649 79.9897 47.0506V47.0506ZM62.2767 46.488H64.1042V52.888H66.1426V44.5891H63.2608L62.2767 46.488ZM70.1492 44.4484C68.181 44.4484 66.9861 45.7847 66.9861 47.5429C66.9861 49.0902 68.181 50.1451 69.5868 50.1451C69.868 50.1451 70.0086 50.1451 70.36 50.0748L68.4622 52.888H70.7818L71.9767 51.1298C72.8905 49.7232 73.4528 48.6682 73.4528 47.4726C73.3122 45.644 72.1173 44.4484 70.1492 44.4484V44.4484ZM70.1492 48.6682C69.4463 48.6682 68.8839 48.1759 68.8839 47.4023C68.8839 46.699 69.376 46.1364 70.1492 46.1364C70.9223 46.1364 71.4144 46.699 71.4144 47.4023C71.4144 48.1759 70.9223 48.6682 70.1492 48.6682Z" fill="#1CA9E5"/>
<path d="M45.0559 19.5515L47.4457 12.2373L41.1899 7.73616H48.8515L51.2414 0.421875L53.6312 7.73616H61.2928L55.1073 12.2373L57.4269 19.5515L51.2414 15.0504L45.0559 19.5515Z" fill="#CEAE39"/>
</svg>
