<svg width="164" height="108" viewBox="0 0 164 108" fill="none" xmlns="http://www.w3.org/2000/svg">
<path d="M55.9737 46.8793C55.9737 45.9299 55.6172 45.2178 55.023 45.2178C53.3592 45.2178 50.9824 50.4398 49.5563 56.3738C54.0723 53.4068 55.9737 49.7277 55.9737 46.8793ZM11.5273 96.2508C11.5273 97.5563 12.0027 99.8112 13.5476 99.8112C19.7273 99.8112 27.452 83.5519 27.8085 70.853C17.1128 78.2112 11.5273 88.7738 11.5273 96.2508ZM67.3824 41.1826H73.7998L70.5911 52.22L75.5824 50.9145L78.4346 41.1826H84.3766L79.5042 57.798L87.4665 47.2354L89.2491 41.3013H95.0723L91.6259 53.0508C91.5071 53.5255 90.794 56.0178 91.3882 56.0178C91.9824 56.0178 93.5273 53.2881 95.1911 50.2024C97.0926 46.8793 98.6375 43.3189 99.3505 41.3013H105.174L102.322 51.2705L109.69 41.3013H161.029L37.3157 94.1145L39.6926 85.8068L137.023 46.0486H118.009L116.226 52.22L110.165 54.1189L112.542 46.0486H109.571L101.133 56.9673L95.9042 58.7475C96.1418 56.1365 96.6172 53.5255 97.2114 50.9145L94.8346 55.4244C92.9331 58.9848 91.2694 61.8332 88.2984 61.8332C86.1592 61.8332 85.2085 59.8156 85.2085 57.2046C85.2085 56.2552 85.3273 55.3057 85.565 54.2376L77.6027 64.8002L71.0665 66.9365L74.394 55.4244L69.4027 56.7299L65.9563 68.7167L58.8259 71.0903L62.0346 60.053L54.7853 69.1914C51.6955 73.1079 48.6056 75.2442 46.1099 75.2442C41.2375 75.2442 40.6433 67.2925 40.9998 64.0881C38.3853 65.2749 37.4346 65.7497 36.6027 66.2244C37.7911 83.3145 20.3215 106.932 9.26937 106.932C5.82299 106.932 3.2085 104.321 3.2085 98.2684C3.2085 89.4859 9.86357 76.5497 27.6897 66.4618C27.2143 63.02 26.0259 60.053 23.8868 58.1541V57.798C29.9476 53.1694 34.4636 47.9475 34.4636 43.3189C34.4636 41.1826 32.7998 40.3519 31.0172 40.3519C27.6897 40.3519 23.2926 44.5057 20.7969 47.9475H19.6085L21.5099 41.3013C26.0259 35.2486 33.394 33.1123 37.3157 33.1123C41.3563 33.1123 44.8027 34.6552 44.8027 39.5211C44.8027 45.3365 39.8114 51.2705 32.4433 55.7804C34.107 57.6793 35.2955 59.9343 35.8897 62.3079C37.6723 61.3585 39.5737 60.409 41.4752 59.5782C43.6143 49.1343 51.1012 41.064 57.7563 41.064C61.0839 41.064 62.6288 43.0815 62.6288 45.8112C62.6288 52.1013 56.8056 56.9672 48.7244 61.2398C48.4868 62.664 48.4868 63.4947 48.4868 64.3255C48.4868 67.1738 49.081 68.4793 50.1505 68.4793C50.8636 68.4793 51.6955 67.8859 52.765 66.6991L63.6984 53.7629L67.3824 41.1826ZM140.351 80.2288L140.588 78.0925H145.698V75.2442H137.974L137.142 83.0771C138.093 82.7211 139.043 82.6024 139.875 82.6024C141.895 82.6024 142.965 83.4332 142.965 84.62C142.965 85.5695 142.133 86.5189 140.588 86.5189C139.4 86.5189 138.093 86.0442 137.023 85.2134L136.666 88.2991C137.736 89.0112 139.281 89.6046 140.826 89.6046C144.51 89.6046 146.53 87.4684 146.53 84.62C146.53 81.2969 143.322 79.6354 140.351 80.2288ZM135.24 79.398C135.24 77.0244 133.339 74.8881 130.011 74.8881C126.803 74.8881 124.782 76.9057 124.782 79.9914V80.1101H128.229V79.9914C128.229 78.5673 128.942 77.7365 130.13 77.7365C131.2 77.7365 131.794 78.4486 131.794 79.398C131.794 80.1101 131.438 80.8222 130.724 81.653L124.426 89.1299H135.24V86.1629H130.962L133.458 83.3145C134.646 82.009 135.24 80.9409 135.24 79.398ZM105.293 78.4486H108.382V89.2486H111.829V75.2442H106.956L105.293 78.4486ZM118.603 75.0068C115.275 75.0068 113.255 77.2618 113.255 80.2288C113.255 82.8398 115.275 84.62 117.652 84.62C118.127 84.62 118.365 84.62 118.959 84.5013L115.751 89.2486H119.672L121.693 86.2815C123.237 83.9079 124.188 82.1277 124.188 80.1101C123.951 77.0244 121.93 75.0068 118.603 75.0068ZM118.603 82.1277C117.414 82.1277 116.464 81.2969 116.464 79.9914C116.464 78.8046 117.295 77.8552 118.603 77.8552C119.91 77.8552 120.742 78.8046 120.742 79.9914C120.742 81.2969 119.91 82.1277 118.603 82.1277Z" fill="#1CA9E5"/>
<path d="M76.1769 32.9932L80.2174 20.6504L69.6406 13.0548H82.5942L86.6348 0.711914L90.6754 13.0548H103.629L93.1711 20.6504L97.0928 32.9932L86.6348 25.3976L76.1769 32.9932Z" fill="#CEAE39"/>
</svg>
