<svg width="183" height="56" viewBox="0 0 183 56" fill="none" xmlns="http://www.w3.org/2000/svg">
<path fill-rule="evenodd" clip-rule="evenodd" d="M36.1411 36.7676H43.5988V39.1512H40.0497V55.9999H36.1411V36.7676Z" fill="#006FAB"/>
<path fill-rule="evenodd" clip-rule="evenodd" d="M43.5986 55.9999H47.4619L47.8297 50.8866H49.6894L50.0576 55.9999H53.9247L51.8647 36.7676H45.654L43.5986 55.9999ZM47.9723 48.7762L48.6488 39.1467H48.8722L49.5491 48.7762H47.9723Z" fill="#006FAB"/>
<path fill-rule="evenodd" clip-rule="evenodd" d="M59.6089 49.2677V52.891C59.6089 53.383 60.0083 53.5232 60.2298 53.5232C60.6028 53.5232 60.8576 53.2204 60.8576 52.891V48.4122C60.8576 47.8173 60.7404 47.1541 59.2646 47.1541H57.6544V45.0351H59.3234C60.4587 45.0351 60.8576 44.7889 60.8576 43.6045V39.7789C60.8576 39.45 60.6028 39.1467 60.2298 39.1467C60.0083 39.1467 59.6089 39.2887 59.6089 39.7789V42.9156H55.6458V40.2008C55.6458 38.8538 55.8158 36.7676 58.5858 36.7676H61.8784C64.6567 36.7676 64.8244 38.8538 64.8244 40.2008V43.2756C64.8244 45.364 63.325 45.9396 62.13 45.8893V46.0825C64.798 46.0263 64.8244 48.002 64.8244 48.6912V52.5648C64.8244 53.9106 64.6567 55.9999 61.8784 55.9999H58.5858C55.8158 55.9999 55.6458 53.9106 55.6458 52.5648V49.2677H59.6089Z" fill="#006FAB"/>
<path fill-rule="evenodd" clip-rule="evenodd" d="M67.1191 36.7676H76.2978V55.9999H72.3269V39.1512H71.0812V55.9999H67.1191V36.7676Z" fill="#006FAB"/>
<path fill-rule="evenodd" clip-rule="evenodd" d="M79.1663 55.9999H83.1342V49.4582H85.3989C88.1819 49.4582 88.3449 47.3725 88.3449 46.0263V40.2008C88.3449 38.8538 88.1819 36.7676 85.3989 36.7676H79.1663V55.9999ZM83.1342 47.3446V39.1467H83.647C84.069 39.1467 84.3826 39.508 84.3826 40.1123V46.3835C84.3826 46.9852 84.069 47.3446 83.647 47.3446H83.1342Z" fill="#006FAB"/>
<path fill-rule="evenodd" clip-rule="evenodd" d="M90.6394 52.5648C90.6394 53.9106 90.8062 55.9999 93.5902 55.9999H96.8747C99.6494 55.9999 99.8181 53.9106 99.8181 52.5648V40.2008C99.8181 38.8538 99.6494 36.7676 96.8747 36.7676H93.5902C90.8062 36.7676 90.6394 38.8538 90.6394 40.2008V52.5648ZM95.8528 52.891C95.8528 53.2204 95.5951 53.5232 95.2327 53.5232C95.0051 53.5232 94.6075 53.383 94.6075 52.891V39.7789C94.6075 39.2887 95.0051 39.1476 95.2327 39.1476C95.5951 39.1476 95.8528 39.4514 95.8528 39.7789V52.891Z" fill="#006FAB"/>
<path fill-rule="evenodd" clip-rule="evenodd" d="M112.438 36.7676H117.602V55.9999H113.632V43.937H113.493L111.45 55.9999H108.271L106.228 43.937H106.082V55.9999H102.113V36.7676H107.274L109.861 50.2859L112.438 36.7676Z" fill="#006FAB"/>
<path fill-rule="evenodd" clip-rule="evenodd" d="M30.8184 18.7522C30.7734 20.7176 30.5391 22.7848 30.2401 24.0259C30.3472 21.8914 30.0906 18.88 29.6033 16.5275C29.1155 14.1804 27.7352 10.2469 26.6289 8.42904C25.6074 10.1635 24.3499 13.5597 23.6947 16.5029C23.0343 19.4577 23.0178 23.019 23.0178 24.0896C22.841 23.1894 22.3997 19.974 22.5278 16.7406C22.6304 14.0773 23.2498 11.335 23.5867 10.0818C24.8854 5.87203 26.3545 3.18091 26.6289 2.75302C26.9029 3.18091 28.7518 6.48919 29.7113 9.97195C30.6672 13.4543 30.8568 16.785 30.8184 18.7522ZM26.6481 33.7902C26.0764 32.703 25.1853 30.6268 25.0969 27.427C25.0737 24.3264 26.3143 21.6734 26.6744 21.1213C26.9913 21.6734 28.0512 23.977 28.1806 27.1454C28.2645 30.2428 27.243 32.6801 26.6481 33.7902ZM31.1549 10.0168C29.9875 4.86734 27.0533 0.680854 26.6481 0C26.0113 0.95804 23.6755 4.65295 22.4822 8.75736C21.1872 13.3269 20.9962 17.3833 21.4442 21.3832C21.8887 25.3741 23.5649 29.4714 23.5649 29.4714C24.4623 31.6301 25.7993 33.94 26.6744 35.0707C27.9445 33.4049 30.88 28.4331 31.7931 21.9317C32.3 18.3288 32.3277 15.1609 31.1549 10.0168Z" fill="#006FAB"/>
<path fill-rule="evenodd" clip-rule="evenodd" d="M28.6861 36.7693H19.5701V42.7785C19.5738 42.7736 19.5816 42.7669 19.5916 42.7574C21.7334 40.6436 25.223 40.6436 27.3652 42.7574C29.5143 44.8712 29.5143 48.2897 27.3652 50.4048C27.3625 50.4138 27.3479 50.4165 27.3378 50.4269C27.33 50.4408 27.3163 50.4525 27.3081 50.4547C25.1654 52.5501 22.37 53.5954 19.5701 53.5954C16.7533 53.5954 13.9415 52.5456 11.7992 50.4341C8.01648 46.7189 7.56919 40.9655 10.4501 36.7693C10.8397 36.2006 11.2861 35.6611 11.7992 35.1603C13.9415 33.0497 16.7533 31.995 19.5701 31.995V17.5354C8.75922 17.5354 0 26.1431 0 36.7693C0 47.391 8.75922 56 19.5701 56C25.1997 56 30.2758 53.6583 33.8464 49.9094V36.7693H28.6861Z" fill="#006FAB"/>
<path fill-rule="evenodd" clip-rule="evenodd" d="M132.734 48.7744L132.057 39.1306H131.831L131.154 48.7744H132.734ZM128.84 36.7676H135.047L137.107 55.9999H133.242L132.875 50.8898H131.014L130.647 55.9999H126.781L128.84 36.7676Z" fill="#00B0DE"/>
<path fill-rule="evenodd" clip-rule="evenodd" d="M143.303 47.3451C143.729 47.3451 144.04 46.9888 144.04 46.3835V39.845C144.04 39.2406 143.729 38.883 143.303 38.883H142.794V47.3451H143.303ZM138.828 36.7676H145.059C147.835 36.7676 148.006 38.856 148.006 40.2022V46.0263C148.006 47.3734 147.835 49.4609 145.059 49.4609H142.794V55.9999H138.828V36.7676Z" fill="#00B0DE"/>
<path fill-rule="evenodd" clip-rule="evenodd" d="M150.301 36.7676H158.166V38.883H154.178V44.8455H158.166V46.9613H154.178V53.8845H158.332V55.9999H150.301V36.7676Z" fill="#00B0DE"/>
<path fill-rule="evenodd" clip-rule="evenodd" d="M161.201 36.7676H165.167V44.8455H166.412V36.7676H170.379V55.9999H166.412V46.9613H165.167V55.9999H161.201V36.7676Z" fill="#00B0DE"/>
<path fill-rule="evenodd" clip-rule="evenodd" d="M178.627 48.7744L177.95 39.1306H177.724L177.047 48.7744H178.627ZM174.734 36.7676H180.941L183 55.9999H179.135L178.768 50.8898H176.907L176.539 55.9999H172.674L174.734 36.7676Z" fill="#00B0DE"/>
</svg>
