<svg width="32" height="32" viewBox="0 0 32 32" fill="none" xmlns="http://www.w3.org/2000/svg">
<path d="M0 16C0 7.16344 7.16344 0 16 0C24.8366 0 32 7.16344 32 16C32 24.8366 24.8366 32 16 32C7.16344 32 0 24.8366 0 16Z" fill="#131313"/>
<path fill-rule="evenodd" clip-rule="evenodd" d="M7.24285 15.8319C11.9072 13.7997 15.0175 12.46 16.5737 11.8127C21.0171 9.96457 21.9404 9.64353 22.5422 9.63293C22.6745 9.63059 22.9705 9.6634 23.1622 9.81895C23.324 9.95029 23.3686 10.1277 23.3899 10.2522C23.4112 10.3768 23.4377 10.6605 23.4166 10.8821C23.1758 13.4121 22.1339 19.5517 21.6039 22.3853C21.3796 23.5843 20.938 23.9863 20.5104 24.0257C19.5813 24.1112 18.8757 23.4116 17.9758 22.8217C16.5676 21.8986 15.7721 21.324 14.4051 20.4232C12.8254 19.3822 13.8495 18.8101 14.7498 17.875C14.9854 17.6303 19.0792 13.9066 19.1585 13.5688C19.1684 13.5266 19.1776 13.3691 19.084 13.2859C18.9905 13.2028 18.8524 13.2312 18.7527 13.2538C18.6115 13.2859 16.3619 14.7728 12.0038 17.7146C11.3653 18.1531 10.7869 18.3667 10.2687 18.3555C9.69743 18.3432 8.59851 18.0325 7.78158 17.767C6.77957 17.4412 5.9832 17.269 6.05255 16.7159C6.08867 16.4278 6.48544 16.1331 7.24285 15.8319Z" fill="white"/>
</svg>
