<svg width="32" height="32" viewBox="0 0 32 32" fill="none" xmlns="http://www.w3.org/2000/svg">
<path d="M0 16C0 7.16344 7.16344 0 16 0C24.8366 0 32 7.16344 32 16C32 24.8366 24.8366 32 16 32C7.16344 32 0 24.8366 0 16Z" fill="#131313"/>
<path d="M16.0026 8.13046C18.5678 8.13046 18.8689 8.1419 19.8828 8.18764C20.8204 8.22956 21.3274 8.38584 21.6666 8.51924C22.1164 8.69457 22.4365 8.90039 22.7719 9.23581C23.1074 9.57123 23.317 9.8914 23.4885 10.3412C23.6181 10.6804 23.7782 11.1873 23.8201 12.125C23.8659 13.1388 23.8773 13.4399 23.8773 16.0051C23.8773 18.5703 23.8659 18.8714 23.8201 19.8853C23.7782 20.8229 23.6219 21.3298 23.4885 21.6691C23.3132 22.1188 23.1074 22.439 22.7719 22.7744C22.4365 23.1098 22.1164 23.3195 21.6666 23.491C21.3274 23.6206 20.8204 23.7806 19.8828 23.8226C18.8689 23.8683 18.5678 23.8797 16.0026 23.8797C13.4375 23.8797 13.1364 23.8683 12.1225 23.8226C11.1849 23.7806 10.6779 23.6244 10.3387 23.491C9.88893 23.3156 9.56876 23.1098 9.23334 22.7744C8.89793 22.439 8.68829 22.1188 8.51677 21.6691C8.38718 21.3298 8.2271 20.8229 8.18517 19.8853C8.13943 18.8714 8.128 18.5703 8.128 16.0051C8.128 13.4399 8.13943 13.1388 8.18517 12.125C8.2271 11.1873 8.38337 10.6804 8.51677 10.3412C8.6921 9.8914 8.89793 9.57123 9.23334 9.23581C9.56876 8.90039 9.88893 8.69076 10.3387 8.51924C10.6779 8.38965 11.1849 8.22956 12.1225 8.18764C13.1364 8.13809 13.4413 8.13046 16.0026 8.13046ZM16.0026 6.40002C13.3955 6.40002 13.0678 6.41146 12.0424 6.4572C11.021 6.50294 10.3234 6.66683 9.7136 6.90315C9.08088 7.14709 8.54727 7.47869 8.01365 8.01231C7.48003 8.54592 7.15224 9.08335 6.90449 9.71225C6.66818 10.3221 6.50428 11.0196 6.45854 12.0449C6.4128 13.0664 6.40137 13.3942 6.40137 16.0013C6.40137 18.6084 6.4128 18.9362 6.45854 19.9615C6.50428 20.983 6.66818 21.6805 6.90449 22.2941C7.14843 22.9269 7.48003 23.4605 8.01365 23.9941C8.54727 24.5277 9.08469 24.8555 9.7136 25.1033C10.3234 25.3396 11.021 25.5035 12.0463 25.5492C13.0716 25.5949 13.3955 25.6064 16.0065 25.6064C18.6174 25.6064 18.9413 25.5949 19.9666 25.5492C20.9881 25.5035 21.6857 25.3396 22.2993 25.1033C22.932 24.8593 23.4656 24.5277 23.9993 23.9941C24.5329 23.4605 24.8607 22.9231 25.1084 22.2941C25.3447 21.6843 25.5086 20.9868 25.5544 19.9615C25.6001 18.9362 25.6115 18.6122 25.6115 16.0013C25.6115 13.3904 25.6001 13.0664 25.5544 12.0411C25.5086 11.0196 25.3447 10.3221 25.1084 9.70844C24.8645 9.07573 24.5329 8.54211 23.9993 8.00849C23.4656 7.47488 22.9282 7.14709 22.2993 6.89934C21.6895 6.66302 20.992 6.49912 19.9666 6.45339C18.9375 6.41146 18.6097 6.40002 16.0026 6.40002Z" fill="white"/>
<path d="M16.0026 8.13046C18.5678 8.13046 18.8689 8.1419 19.8828 8.18764C20.8204 8.22956 21.3274 8.38584 21.6666 8.51924C22.1164 8.69457 22.4365 8.90039 22.7719 9.23581C23.1074 9.57123 23.317 9.8914 23.4885 10.3412C23.6181 10.6804 23.7782 11.1873 23.8201 12.125C23.8659 13.1388 23.8773 13.4399 23.8773 16.0051C23.8773 18.5703 23.8659 18.8714 23.8201 19.8853C23.7782 20.8229 23.6219 21.3298 23.4885 21.6691C23.3132 22.1188 23.1074 22.439 22.7719 22.7744C22.4365 23.1098 22.1164 23.3195 21.6666 23.491C21.3274 23.6206 20.8204 23.7806 19.8828 23.8226C18.8689 23.8683 18.5678 23.8797 16.0026 23.8797C13.4375 23.8797 13.1364 23.8683 12.1225 23.8226C11.1849 23.7806 10.6779 23.6244 10.3387 23.491C9.88893 23.3156 9.56876 23.1098 9.23334 22.7744C8.89793 22.439 8.68829 22.1188 8.51677 21.6691C8.38718 21.3298 8.2271 20.8229 8.18517 19.8853C8.13943 18.8714 8.128 18.5703 8.128 16.0051C8.128 13.4399 8.13943 13.1388 8.18517 12.125C8.2271 11.1873 8.38337 10.6804 8.51677 10.3412C8.6921 9.8914 8.89793 9.57123 9.23334 9.23581C9.56876 8.90039 9.88893 8.69076 10.3387 8.51924C10.6779 8.38965 11.1849 8.22956 12.1225 8.18764C13.1364 8.13809 13.4413 8.13046 16.0026 8.13046Z" fill="white"/>
<path d="M16.0024 11.073C13.281 11.073 11.0703 13.2799 11.0703 16.0051C11.0703 18.7304 13.2772 20.9373 16.0024 20.9373C18.7277 20.9373 20.9346 18.7304 20.9346 16.0051C20.9346 13.2799 18.7277 11.073 16.0024 11.073ZM16.0024 19.203C14.2339 19.203 12.8008 17.7699 12.8008 16.0013C12.8008 14.2328 14.2339 12.7996 16.0024 12.7996C17.771 12.7996 19.2041 14.2328 19.2041 16.0013C19.2041 17.7699 17.771 19.203 16.0024 19.203Z" fill="#131313"/>
<path d="M21.1291 12.0258C21.7648 12.0258 22.2802 11.5104 22.2802 10.8747C22.2802 10.239 21.7648 9.72363 21.1291 9.72363C20.4934 9.72363 19.978 10.239 19.978 10.8747C19.978 11.5104 20.4934 12.0258 21.1291 12.0258Z" fill="#131313"/>
</svg>
