<svg width="32" height="32" viewBox="0 0 32 32" fill="none" xmlns="http://www.w3.org/2000/svg">
<path d="M0 16C0 7.16344 7.16344 0 16 0C24.8366 0 32 7.16344 32 16C32 24.8366 24.8366 32 16 32C7.16344 32 0 24.8366 0 16Z" fill="#131313"/>
<path d="M16.0024 11.073C13.281 11.073 11.0703 13.2799 11.0703 16.0051C11.0703 18.7304 13.2772 20.9373 16.0024 20.9373C18.7277 20.9373 20.9346 18.7304 20.9346 16.0051C20.9346 13.2799 18.7277 11.073 16.0024 11.073ZM16.0024 19.203C14.2339 19.203 12.8008 17.7699 12.8008 16.0013C12.8008 14.2328 14.2339 12.7996 16.0024 12.7996C17.771 12.7996 19.2041 14.2328 19.2041 16.0013C19.2041 17.7699 17.771 19.203 16.0024 19.203Z" fill="#131313"/>
<path d="M21.1291 12.0258C21.7648 12.0258 22.2802 11.5104 22.2802 10.8747C22.2802 10.239 21.7648 9.72363 21.1291 9.72363C20.4934 9.72363 19.978 10.239 19.978 10.8747C19.978 11.5104 20.4934 12.0258 21.1291 12.0258Z" fill="#131313"/>
<path fill-rule="evenodd" clip-rule="evenodd" d="M15.2574 22.8832H16.547C16.547 22.8832 16.8694 22.8832 17.0843 22.6671C17.2993 22.451 17.2993 22.127 17.2993 22.127C17.2993 22.127 17.2993 20.3985 18.0516 20.1824C18.8038 19.9664 19.7711 21.8029 20.8458 22.5591C21.5981 23.0992 22.2429 22.9912 22.2429 22.9912H25.0371C25.0371 22.9912 26.5416 22.8832 25.7894 21.8029C25.6819 21.6948 25.3595 20.9386 23.7474 19.4262C22.0279 17.8058 22.2429 18.0219 24.2848 15.2131C25.5744 13.4847 26.1118 12.4044 25.8968 11.9723C25.7894 11.5401 24.8221 11.6482 24.8221 11.6482H21.7055C21.7055 11.6482 21.4906 11.6482 21.2756 11.7562C21.0607 11.8642 20.9532 12.0803 20.9532 12.0803C20.9532 12.0803 20.4159 13.3766 19.7711 14.5649C18.374 16.9416 17.8366 17.0496 17.6217 16.9416C17.0843 16.6175 17.1918 15.5372 17.1918 14.781C17.1918 12.5124 17.5142 11.5401 16.547 11.2161C16.1171 11.108 15.9022 11 15.0424 11C13.9677 11 13.0005 11 12.4632 11.2161C12.1407 11.4321 11.8183 11.8642 12.0333 11.8642C12.2482 11.8642 12.6781 11.9723 13.0005 12.2963C13.3229 12.7285 13.3229 13.7007 13.3229 13.7007C13.3229 13.7007 13.5378 16.4014 12.893 16.7255C12.3557 17.0496 11.8183 16.5095 10.5287 14.3489C9.88389 13.2686 9.45401 11.9723 9.45401 11.9723C9.45401 11.9723 9.34654 11.8642 9.1316 11.7562C9.02413 11.5401 8.70172 11.5401 8.70172 11.5401H5.69258C5.69258 11.5401 5.2627 11.5401 5.04776 11.7562C4.94029 11.9723 5.04776 12.2963 5.04776 12.2963C5.04776 12.2963 7.41209 17.8058 9.99136 20.5065C12.4632 22.9912 15.2574 22.8832 15.2574 22.8832Z" fill="white"/>
</svg>
