<svg width="24" height="42" viewBox="0 0 24 42" fill="none" xmlns="http://www.w3.org/2000/svg">
<path fill-rule="evenodd" clip-rule="evenodd" d="M20.249 27.5768H13.8142V32.0837C13.8168 32.08 13.8223 32.075 13.8294 32.0679C15.3412 30.4825 17.8045 30.4825 19.3166 32.0679C20.8337 33.6532 20.8337 36.2171 19.3166 37.8034C19.3147 37.8102 19.3044 37.8122 19.2973 37.82C19.2918 37.8304 19.2821 37.8392 19.2763 37.8409C17.7638 39.4124 15.7906 40.1963 13.8142 40.1963C11.8259 40.1963 9.84105 39.409 8.32888 37.8254C5.65869 35.039 5.34296 30.7239 7.37651 27.5768C7.65157 27.1503 7.96665 26.7457 8.32888 26.3701C9.84105 24.7871 11.8259 23.9961 13.8142 23.9961V13.1514C6.18298 13.1514 0 19.6071 0 27.5768C0 35.5431 6.18298 41.9999 13.8142 41.9999C17.788 41.9999 21.3712 40.2435 23.8916 37.4319V27.5768H20.249Z" fill="#006FAB"/>
<path fill-rule="evenodd" clip-rule="evenodd" d="M21.7543 14.0641C21.7225 15.5382 21.5571 17.0886 21.3461 18.0194C21.4217 16.4185 21.2406 14.16 20.8966 12.3956C20.5523 10.6353 19.5779 7.68517 18.797 6.32178C18.076 7.6226 17.1883 10.1698 16.7258 12.3771C16.2596 14.5933 16.248 17.2642 16.248 18.0672C16.1232 17.392 15.8117 14.9805 15.9021 12.5554C15.9745 10.5579 16.4118 8.50126 16.6496 7.56138C17.5663 4.40402 18.6033 2.38568 18.797 2.06476C18.9904 2.38568 20.2955 4.86689 20.9728 7.47896C21.6475 10.0907 21.7814 12.5887 21.7543 14.0641ZM18.8106 25.3426C18.407 24.5272 17.778 22.9701 17.7156 20.5703C17.6992 18.2448 18.5749 16.255 18.8292 15.841C19.0528 16.255 19.801 17.9828 19.8923 20.359C19.9515 22.6821 19.2305 24.5101 18.8106 25.3426ZM21.9919 7.5126C21.1678 3.65051 19.0966 0.51064 18.8106 0C18.3611 0.71853 16.7123 3.48971 15.87 6.56802C14.9558 9.99516 14.821 13.0375 15.1372 16.0374C15.451 19.0306 16.6342 22.1035 16.6342 22.1035C17.2677 23.7226 18.2114 25.455 18.8292 26.303C19.7257 25.0537 21.7978 21.3248 22.4423 16.4488C22.8002 13.7466 22.8197 11.3707 21.9919 7.5126Z" fill="#006FAB"/>
</svg>
