<svg width="32" height="32" viewBox="0 0 32 32" fill="none" xmlns="http://www.w3.org/2000/svg">
<path d="M0 16C0 7.16344 7.16344 0 16 0C24.8366 0 32 7.16344 32 16C32 24.8366 24.8366 32 16 32C7.16344 32 0 24.8366 0 16Z" fill="#131313"/>
<path d="M6.29443 25.3072L7.66635 20.3254C6.81817 18.8631 6.37323 17.2071 6.37786 15.5142C6.37786 10.2095 10.7161 5.89648 16.0415 5.89648C18.6277 5.89648 21.0564 6.89746 22.8779 8.71491C24.704 10.5324 25.7098 12.9495 25.7051 15.5188C25.7051 20.8235 21.3669 25.1365 16.0369 25.1365H16.0322C14.4147 25.1365 12.8249 24.7306 11.4113 23.9649L6.29443 25.3072ZM11.6569 22.2258L11.9489 22.4011C13.1818 23.1299 14.5954 23.5128 16.0369 23.5174H16.0415C20.4678 23.5174 24.0737 19.9333 24.0737 15.5234C24.0737 13.3877 23.2394 11.3811 21.7238 9.86812C20.2082 8.35511 18.1874 7.52481 16.0415 7.52481C11.6152 7.52019 8.00932 11.1043 8.00932 15.5142C8.00932 17.0226 8.43109 18.4941 9.23755 19.7672L9.42758 20.0717L8.61649 23.0192L11.6569 22.2258Z" fill="white"/>
<path d="M6.63281 24.9697L7.95838 20.1585C7.13801 18.7516 6.70697 17.1509 6.70697 15.518C6.7116 10.3978 10.8969 6.23242 16.0415 6.23242C18.5397 6.23242 20.8803 7.20111 22.6415 8.95398C24.4028 10.7068 25.3715 13.0409 25.3715 15.5226C25.3715 20.6428 21.1816 24.8082 16.0415 24.8082H16.0369C14.475 24.8082 12.9408 24.4161 11.5782 23.6781L6.63281 24.9697Z" fill="#131313"/>
<path d="M6.29443 25.3072L7.66635 20.3254C6.81817 18.8631 6.37323 17.2071 6.37786 15.5142C6.37786 10.2095 10.7161 5.89648 16.0415 5.89648C18.6277 5.89648 21.0564 6.89746 22.8779 8.71491C24.704 10.5324 25.7098 12.9495 25.7051 15.5188C25.7051 20.8235 21.3669 25.1365 16.0369 25.1365H16.0322C14.4147 25.1365 12.8249 24.7306 11.4113 23.9649L6.29443 25.3072ZM11.6569 22.2258L11.9489 22.4011C13.1818 23.1299 14.5954 23.5128 16.0369 23.5174H16.0415C20.4678 23.5174 24.0737 19.9333 24.0737 15.5234C24.0737 13.3877 23.2394 11.3811 21.7238 9.86812C20.2082 8.35511 18.1874 7.52481 16.0415 7.52481C11.6152 7.52019 8.00932 11.1043 8.00932 15.5142C8.00932 17.0226 8.43109 18.4941 9.23755 19.7672L9.42758 20.0717L8.61649 23.0192L11.6569 22.2258Z" fill="white"/>
<path fill-rule="evenodd" clip-rule="evenodd" d="M13.6268 11.492C13.4461 11.0907 13.2561 11.0815 13.0846 11.0769C12.9455 11.0723 12.7833 11.0723 12.6211 11.0723C12.4589 11.0723 12.1993 11.1322 11.9768 11.3721C11.7544 11.612 11.1333 12.1932 11.1333 13.3787C11.1333 14.5596 12 15.7035 12.1205 15.865C12.241 16.0264 13.7937 18.5312 16.2455 19.4953C18.2849 20.2979 18.702 20.1364 19.1423 20.0949C19.5826 20.0534 20.5698 19.5137 20.7738 18.9509C20.9731 18.3882 20.9731 17.9085 20.9128 17.807C20.8526 17.7055 20.6903 17.6455 20.4493 17.5256C20.2083 17.4057 19.0218 16.8244 18.7993 16.7414C18.5768 16.663 18.4146 16.6215 18.257 16.8613C18.0948 17.1012 17.6313 17.6409 17.4923 17.8024C17.3533 17.9638 17.2096 17.9823 16.9686 17.8623C16.7275 17.7424 15.9489 17.4887 15.0266 16.6676C14.3082 16.031 13.8215 15.2422 13.6825 15.0024C13.5434 14.7625 13.6686 14.6334 13.7891 14.5134C13.8957 14.4073 14.0301 14.232 14.1506 14.0937C14.2711 13.9553 14.3128 13.8538 14.3916 13.6923C14.4704 13.5309 14.4333 13.3925 14.3731 13.2726C14.3128 13.1573 13.84 11.9672 13.6268 11.492Z" fill="white"/>
</svg>
